<?xml version="1.0" standalone="no"?>
<!DOCTYPE svg PUBLIC "-//W3C//DTD SVG 20010904//EN"
 "http://www.w3.org/TR/2001/REC-SVG-20010904/DTD/svg10.dtd">
<svg version="1.0" xmlns="http://www.w3.org/2000/svg"
 width="42.000000pt" height="12.000000pt" viewBox="0 0 42.000000 12.000000"
 preserveAspectRatio="xMidYMid meet">

<g transform="translate(0.000000,12.000000) scale(0.100000,-0.100000)"
fill="#000000" stroke="none">
<path d="M26 85 c15 -23 15 -27 0 -50 l-16 -25 36 0 c38 0 63 20 64 51 0 25
-33 49 -69 49 -31 0 -31 0 -15 -25z"/>
<path d="M126 85 c15 -23 15 -27 0 -50 -15 -22 -15 -25 -1 -25 9 0 18 7 22 15
5 14 8 14 24 -1 25 -23 35 -11 16 17 -14 19 -14 24 0 45 13 21 14 24 0 24 -8
0 -18 -8 -22 -17 -6 -17 -7 -17 -16 0 -6 9 -17 17 -25 17 -12 0 -12 -4 2 -25z"/>
<path d="M220 60 l0 -50 46 0 c27 0 43 4 39 10 -3 6 -19 10 -36 10 -16 0 -29
5 -29 10 0 6 14 10 30 10 17 0 30 5 30 10 0 6 -13 10 -30 10 -16 0 -30 5 -30
10 0 6 14 10 30 10 17 0 30 5 30 10 0 6 -18 10 -40 10 l-40 0 0 -50z"/>
<path d="M327 103 c-16 -15 -4 -35 29 -49 28 -12 34 -18 25 -27 -9 -9 -17 -8
-32 1 -23 15 -39 8 -22 -9 6 -6 26 -9 44 -7 26 2 35 8 37 25 3 17 -3 24 -27
30 -17 4 -30 13 -29 18 3 11 14 11 41 0 13 -6 16 -3 11 9 -6 16 -64 23 -77 9z"/>
</g>
</svg>
