<?xml version="1.0" encoding="utf-8"?>
<!-- Generator: Adobe Illustrator 17.0.0, SVG Export Plug-In . SVG Version: 6.00 Build 0)  -->
<!DOCTYPE svg PUBLIC "-//W3C//DTD SVG 1.1//EN" "http://www.w3.org/Graphics/SVG/1.1/DTD/svg11.dtd">
<svg version="1.1" id="Layer_1" xmlns="http://www.w3.org/2000/svg" xmlns:xlink="http://www.w3.org/1999/xlink" x="0px" y="0px"
	 width="42px" height="42px" viewBox="0 0 42 42" enable-background="new 0 0 42 42" xml:space="preserve">
<polygon fill="#3D6480" points="5.534,11.803 11.922,11.802 11.922,5.475 10.021,5.475 10.021,8.558 4.798,3.334 3.454,4.677 
	8.678,9.903 5.534,9.903 "/>
<g id="XMLID_1_">
	<g>
		<polygon fill="#DBF3DB" points="29.98,13.07 30.04,33.22 12.34,33.22 12.34,15.38 18.92,8.81 25.72,8.81 25.72,13.07 		"/>
	</g>
	<g>
	</g>
</g>
<polygon fill="#3D6480" points="31.678,13.08 29.969,11.371 27.421,11.371 27.421,8.823 25.711,7.113 20.614,7.113 18.915,8.812 
	25.721,8.812 25.721,13.07 29.978,13.07 30.036,33.223 12.342,33.223 12.342,15.384 10.642,17.085 10.642,34.923 31.741,34.923 "/>
<text transform="matrix(1 0 0 1 13.3 25)" fill="#3D6480" font-family="'Verdana'" font-size="8">XES</text>
</svg>
